<svg xmlns="http://www.w3.org/2000/svg" version="1.1" xmlns:xlink="http://www.w3.org/1999/xlink" width="600" height="156" viewBox="0 0 600 156"><svg xml:space="preserve" width="600" height="156" data-version="2" data-id="lg_8vyvw7VODYDW2WDTrs" viewBox="0 0 604 156" x="0" y="0"><g transform="translate(400.44 93.68)"><filter id="a" width="140%" height="140%" x="-20%" y="-20%"><feGaussianBlur in="SourceAlpha"></feGaussianBlur><feOffset result="oBlur"></feOffset><feFlood flood-color="#000" flood-opacity="1"></feFlood><feComposite in2="oBlur" operator="in"></feComposite><feMerge><feMergeNode></feMergeNode><feMergeNode in="SourceGraphic"></feMergeNode></feMerge></filter><g filter="url(#a)"><path fill="#001F3F" d="M-167.14 19.54q-9.19 0-16.06-4.35-6.87-4.35-10.65-11.78-3.78-7.44-3.78-16.38 0-9.07 3.78-16.44 3.78-7.38 10.65-11.72 6.87-4.35 16.06-4.35 7.82 0 13.42 3.02 5.61 3.03 9.14 8.19v-10.2h9.45v63h-9.45V8.45q-3.53 5.04-9.14 8.06-5.6 3.03-13.42 3.03m1.26-8.57q7.06 0 11.91-3.28 4.85-3.27 7.37-8.75 2.52-5.49 2.52-11.91 0-6.55-2.52-11.97-2.52-5.42-7.37-8.7-4.85-3.27-11.91-3.27-6.93 0-11.97 3.27-5.04 3.28-7.68 8.7-2.65 5.42-2.65 11.97 0 6.42 2.65 11.91 2.64 5.48 7.68 8.75 5.04 3.28 11.97 3.28"></path><rect width="62.5" height="65.02" x="-31.25" y="-32.51" fill="none" rx="0" ry="0" transform="translate(-165.88 -12.47)"></rect><path fill="#001F3F" d="M-118.75 18.53v-63h9.45v15.5q.5-1.64 1.95-4.35t4.22-5.48q2.77-2.77 7-4.73 4.22-1.95 10.01-1.95h.63v9.45h-1.13q-7.06 0-12.16 3.84-5.1 3.85-7.81 9.96-2.71 6.11-2.71 13.04v27.72Z"></path><rect width="33.26" height="64.01" x="-16.63" y="-32.01" fill="none" rx="0" ry="0" transform="translate(-101.62 -12.97)"></rect><path fill="#001F3F" d="M-48.07 44.48q-11.84 0-19.27-5.1-7.44-5.1-10.08-13.29h10.45q1.89 4.66 6.56 7.24 4.66 2.59 11.84 2.59 10.84 0 15.81-5.11 4.98-5.1 4.98-14.8v-8.7q-3.53 5.04-9.13 8.13-5.61 3.09-13.42 3.09-9.2 0-16.07-4.22-6.87-4.22-10.65-11.53-3.78-7.31-3.78-16.26 0-9.07 3.78-16.31 3.78-7.25 10.65-11.47 6.87-4.22 16.07-4.22 7.81 0 13.42 2.96 5.6 2.96 9.13 8.13v-10.08h9.45v61.11q0 13.48-7.75 20.66t-21.99 7.18m-1-34.52q6.93 0 11.78-3.15t7.43-8.5q2.58-5.36 2.58-11.79 0-6.55-2.58-11.84t-7.43-8.44q-4.85-3.15-11.78-3.15t-11.97 3.15q-5.04 3.15-7.69 8.44-2.65 5.29-2.65 11.84 0 6.43 2.65 11.79 2.65 5.35 7.69 8.5Q-56 9.96-49.07 9.96"></path><rect width="62.5" height="89.96" x="-31.25" y="-44.98" fill="none" rx="0" ry="0" transform="translate(-49.08)"></rect><path fill="#001F3F" d="M25.39 19.54q-9.57 0-16.63-4.35Q1.7 10.84-2.08 3.41q-3.78-7.44-3.78-16.38 0-9.07 3.78-16.44Q1.7-36.79 8.76-41.13q7.06-4.35 16.63-4.35 9.7 0 16.7 4.35 6.99 4.34 10.77 11.72 3.78 7.37 3.78 16.44 0 8.94-3.78 16.38-3.78 7.43-10.77 11.78-7 4.35-16.7 4.35m0-8.57q7.06 0 11.91-3.28 4.85-3.27 7.37-8.75 2.52-5.49 2.52-11.91 0-6.55-2.52-11.97-2.52-5.42-7.37-8.7-4.85-3.27-11.91-3.27-6.93 0-11.84 3.27-4.92 3.28-7.44 8.7-2.52 5.42-2.52 11.97 0 6.42 2.52 11.91 2.52 5.48 7.44 8.75 4.91 3.28 11.84 3.28"></path><rect width="62.5" height="65.02" x="-31.25" y="-32.51" fill="none" rx="0" ry="0" transform="translate(25.89 -12.47)"></rect><path fill="#001F3F" d="M69.11 18.53v-63h9.45v15.5q.51-1.64 1.96-4.35t4.22-5.48q2.77-2.77 6.99-4.73 4.22-1.95 10.02-1.95h.63v9.45h-1.14q-7.05 0-12.15 3.84-5.11 3.85-7.82 9.96-2.71 6.11-2.71 13.04v27.72Z"></path><rect width="33.27" height="64.01" x="-16.64" y="-32.01" fill="none" rx="0" ry="0" transform="translate(86.25 -12.97)"></rect><path fill="#001F3F" d="M137.53 19.54q-9.2 0-16.06-4.35-6.87-4.35-10.65-11.78-3.78-7.44-3.78-16.38 0-9.07 3.78-16.44 3.78-7.38 10.65-11.72 6.86-4.35 16.06-4.35 7.81 0 13.42 3.02 5.61 3.03 9.14 8.19v-10.2h9.45v63h-9.45V8.45q-3.53 5.04-9.14 8.06-5.61 3.03-13.42 3.03m1.26-8.57q7.06 0 11.91-3.28 4.85-3.27 7.37-8.75 2.52-5.49 2.52-11.91 0-6.55-2.52-11.97-2.52-5.42-7.37-8.7-4.85-3.27-11.91-3.27-6.93 0-11.97 3.27-5.04 3.28-7.68 8.7-2.65 5.42-2.65 11.97 0 6.42 2.65 11.91 2.64 5.48 7.68 8.75 5.04 3.28 11.97 3.28"></path><rect width="62.5" height="65.02" x="-31.25" y="-32.51" fill="none" rx="0" ry="0" transform="translate(138.79 -12.47)"></rect><path fill="#94C3D2" d="M184.4 18.53V5.68h12.23v12.85Z"></path><rect width="12.23" height="12.85" x="-6.12" y="-6.42" fill="none" rx="0" ry="0" transform="translate(191.01 12.6)"></rect></g></g><circle r="50" fill="#94C3D2" transform="translate(82.5 78)scale(1.5313)"></circle><path fill="#FFF" d="M127.803 110.36H87.31v10.285h42.63V110.36zM69.005 35.98 35.269 53.153l-1.17.594v7.236l1.17.594 33.736 17.098 3.115 1.572V70.53l-1.18-.594-24.956-12.603L70.941 44.72l1.179-.594v-9.728zm39.62-1.582h-7.619l-.566 1.246-37.464 81.972-1.39 3.029h10.956l.574-1.256 37.455-81.962 1.38-3.029z"></path></svg></svg>